#!OML:ASF F:\VICON\USERDATA\INSTALL\rory3\rory3.ASF
:FULLY-SPECIFIED
:DEGREES
18
root -6.090700630057049 17.65861488597285 1.6463225736052474 -9.34784863781411 55.13939365553535 -23.940210543546655
lfemur -12.196306021564478 21.569490067090406 7.855766522148707
ltibia 33.46919244664318
lfoot -8.374399847357147 14.474488882204861
ltoes -35.906588991096285
rfemur -31.443490921672314 11.862491629599319 26.22399101270237
rtibia 27.592496738174397
rfoot -6.478782501815346 14.514790798825564
rtoes 14.950104315109844
lowerback -0.033398896853355176 -4.399563980105809 -10.086491162498513
upperback 4.071640086585331 -5.527864075109431 -0.8667213854059739
thorax 5.184028375197444 -3.099923952511543 4.413125251871081
lowerneck -9.205560510525059 14.891490832144145 4.606094626588866
upperneck 29.18389033398171 24.06929110992527 -8.724475067296618
head 12.985688726544653 10.284191122672645 -0.46013473850545095
lclavicle -5.008194711663605e-15 -1.0203021341082518e-14
lhumerus 83.01269530337834 -70.62968666968519 23.82221494970394
lradius 26.28130868834097
lwrist 9.043025189093303
lhand 5.906534411964413 35.156095059999714
lfingers 7.125020000000001
lthumb -148.76601535096827 242.51298662582428
rclavicle -5.008194711663605e-15 -1.0203021341082518e-14
rhumerus -13.6056872148718 -4.024175879249075 -94.96958808769756
rradius 72.73619902618275
rwrist -61.67078277788503
rhand -59.87849164260763 -3.065048215905147
rfingers 7.125020000000001
rthumb -32.036192283525054 -30.26368917791861
19
root -6.053801373160663 17.674713937961737 1.8000720197412508 -9.331399584609343 53.75969385927834 -23.477411370821585
lfemur -10.937506968763504 21.402389251176874 9.239044917888398
ltibia 34.518991010128204
lfoot -7.730210271410407 13.333790758069979
ltoes -35.51739093813123
rfemur -30.427191722408395 11.967691964963969 27.249889310624916
rtibia 27.499296700506672
rfoot -6.296392892922786 15.665990679743748
rtoes 17.220503078698435
lowerback 0.19589746912789785 -5.553632345505765 -10.517191102049297
upperback 3.8375698524828277 -7.0802925642367045 -1.1911549107226613
thorax 5.06597856961767 -3.860222674279042 4.212015646954949
lowerneck -8.337192684776587 16.162890141096533 4.375305328068799
upperneck 27.87209207088634 25.80848957257867 -9.141514416826004
head 12.457990464222718 11.079090291150587 -0.39518437229526415
lclavicle -5.008197044530146e-15 -1.020302120879722e-14
lhumerus 85.58399472645391 -68.36658872553495 23.69061658620464
lradius 26.083408731144928
lwrist 7.474006119535774
lhand 2.866487369749679 28.854297357909
lfingers 7.125020000000001
lthumb -151.66701298533062 236.73098973158767
rclavicle -5.008197044530146e-15 -1.020302120879722e-14
rhumerus -12.674086294610937 -5.736154973914813 -94.06518732931734
rradius 76.96359747797842
rwrist -57.053787280894724
rhand -61.20289104441297 -0.060690068975610245
rfingers 7.125020000000001
rthumb -33.29629109557732 -26.99789170278033
20
root -6.017442126124476 17.674213972975295 1.9703813509215824 -8.474992544842848 51.85529509656454 -22.685914565647025
lfemur -9.661568479294864 21.383588706075653 10.432782999418913
ltibia 35.20458996458268
lfoot -6.361631399263073 12.430889946873704
ltoes -36.510988507580635
rfemur -30.174492571334362 12.649391189431691 28.06768869346078
rtibia 27.72739658479283
rfoot -6.173863064660437 17.033390240196695
rtoes 17.659802549423222
lowerback -0.38141240024661416 -6.387621978710724 -11.050990631049325
upperback 3.4349003106192697 -8.11042196492372 -1.5767640226072173
thorax 5.150918487998669 -4.362061626888188 3.961546138198999
lowerneck -7.655714439453452 17.13379040168723 4.365745390402961
upperneck 26.62109335885571 27.06309066582398 -9.560304089626584
head 12.000891854487964 11.684290148996933 -0.4279030681496866
lclavicle -5.0081970413043824e-15 -1.0203021407225176e-14
lhumerus 85.15839511166932 -66.36598826342792 27.091515222238684
lradius 26.013408846424348
lwrist 3.858968536963957
lhand 0.13119479306736892 22.105600056211326
lfingers 7.125020000000001
lthumb -154.2840102889422 230.3879932055055
rclavicle -5.0081970413043824e-15 -1.0203021407225176e-14
rhumerus -11.663887478500875 -7.775764078357758 -93.25688764300936
rradius 81.26199613374128
rwrist -51.819487899325466
rhand -62.009891077632986 3.086287906945582
rfingers 7.125020000000001
rthumb -34.06309114511062 -23.683393457578802
21
root -5.99265262133738 17.695312735996374 2.1253007838297564 -6.578252507876087 50.55309414357491 -19.59310705351085
lfemur -7.89365982220442 21.3729901041741 9.828984516469676
ltibia 35.22819020742787
lfoot -4.176522852755529 11.753791332012133
ltoes -36.72498750947061
rfemur -29.382292550504317 12.513291484684752 27.33198949970369
rtibia 28.39439587621192
rfoot -6.680012928000997 18.449788788596756
rtoes 17.277502964164476
lowerback 0.3452503834227305 -7.209940965458438 -13.252388796787084
upperback 3.029221098611808 -9.244440985222194 -2.179222959336933
thorax 4.764079271443086 -4.934300713301429 4.493295156228601
lowerneck -7.249095565509863 18.190188928369512 4.011406315033328
upperneck 25.565694618036417 28.508189963465302 -9.903813579688869
head 11.640292989370069 12.335489145051971 -0.3384128824830164
lclavicle -5.008195526877636e-15 -1.0203021407225176e-14
lhumerus 85.55619464425484 -64.1609903735798 29.66451205308215
lradius 26.300307818214016
lwrist 1.3368694986671343
lhand -3.9329476358042115 16.29740221406592
lfingers 7.125020000000001
lthumb -158.18200805905204 225.08699402026213
rclavicle -5.008195526877636e-15 -1.0203021407225176e-14
rhumerus -9.98601809895461 -8.48131380545215 -92.03478846221039
rradius 85.54289373601225
rwrist -46.89788901463489
rhand -63.23319087903391 8.575754140769693
rfingers 7.125020000000001
rthumb -35.22409034957873 -17.92769688723879
22
root -5.962833208374489 17.701912351296585 2.2865101483008448 -6.090023867395658 48.65279521047218 -18.58300838159954
lfemur -6.055651239954708 20.957989412548876 10.546983722606912
ltibia 35.26048966885572
lfoot -2.8203934462228037 11.717691682518671
ltoes -35.015090989372666
rfemur -28.750392890809145 13.629790312209915 27.76918862329166
rtibia 28.971295098452135
rfoot -6.193203606474886 19.248589677772316
rtoes 20.801400513655008
lowerback 0.39083517235638565 -7.684380318578125 -13.383388483582792
upperback 2.649011552197443 -9.884630875715047 -2.7314419080369627
thorax 4.3688499763311075 -5.198650219556548 3.965996146476156
lowerneck -6.602177026661765 19.129789484075676 3.697017211556103
upperneck 24.33449571523836 29.57128763127678 -9.801653723180031
head 11.063194865181883 12.914289580955014 -0.2306798816161253
lclavicle -5.0081952449363244e-15 -1.0203021296987413e-14
lhumerus 88.454993768398 -62.206691232119695 29.69131333899195
lradius 26.962807513586174
lwrist 0.24105283331815386
lhand -7.200515067914545 11.304204523641154
lfingers 7.125020000000001
lthumb -161.3220050091615 220.4269862229964
rclavicle -5.0081952449363244e-15 -1.0203021296987413e-14
rhumerus -8.314498367758631 -10.571692284900362 -91.19308834582816
rradius 89.87069293655158
rwrist -41.35179132105362
rhand -63.368690579993725 12.973801228197765
rfingers 7.125020000000001
rthumb -35.352589948127864 -13.499199832468431
23
root -5.9382637043246875 17.70391223163161 2.426219596587988 -4.757612147878234 46.96779584950124 -16.901308539536004
lfemur -4.90552246644895 20.518389904957967 10.261984116070456
ltibia 35.466889409094726
lfoot -1.8121443901662104 12.387791029367191
ltoes -33.953387873308145
rfemur -28.678892296405195 14.150989186101087 27.564589493560756
rtibia 29.69709441006158
rfoot -5.879553752299196 20.421389429492038
rtoes 23.164498962882863
lowerback 0.4172344380152935 -8.213769820227517 -14.034087355663457
upperback 2.133741951407681 -10.602590144533316 -3.1989010682192798
thorax 3.958330667404878 -5.507779686497393 3.7932964844768167
lowerneck -5.9124689536572985 20.080488239671315 3.572657607793512
upperneck 22.69849749099294 30.70558845593411 -10.313192619069277
head 10.490796559883794 13.513888148683538 -0.3417198449577894
lclavicle -5.00819654831058e-15 -1.0203021252892324e-14
lhumerus 91.46889206543084 -59.869291341569394 29.632014033041234
lradius 27.939407561976317
lwrist -0.23353083783152329
lhand -10.179802910328263 7.926166533885201
lfingers 7.125020000000001
lthumb -164.19000311254698 217.30099420047975
rclavicle -5.00819654831058e-15 -1.0203021252892324e-14
rhumerus -5.7379689685200574 -12.21599235593072 -90.02808956294766
rradius 93.82599066824835
rwrist -36.000493061676124
rhand -62.684091034493385 17.370798481327885
rfingers 7.125020000000001
rthumb -34.703191003241706 -9.254102401925412
24
root -5.916024177223342 17.70541214698019 2.557389018302034 -3.66426384259654 45.41449608755849 -15.48131528707016
lfemur -3.9363232121470695 20.185690192610053 9.932503643705918
ltibia 35.74368883910183
lfoot -0.597470294869046 13.032090398046508
ltoes -33.39508924730343
rfemur -28.63749226185015 14.908488869171668 27.323889443320326
rtibia 30.410493570114795
rfoot -5.60632362943064 21.247787362309566
rtoes 24.77139784992582
lowerback 0.55747104104482 -8.587849578478986 -14.876287394326582
upperback 1.6520828967008985 -11.154589660259756 -3.2605008677490415
thorax 3.6111713296742396 -5.752339749408408 4.160355737176523
lowerneck -5.457130244038601 20.701887228618286 2.8204798927747605
upperneck 21.07419932030089 31.389888268568455 -10.737692009201261
head 9.831558605573633 13.884387780261383 -0.4287450422726121
lclavicle -5.008194635137239e-15 -1.0203021429272721e-14
lhumerus 93.39449187577357 -57.64539124427366 31.999012500335215
lradius 28.532007683531873
lwrist -2.145978718540025
lhand -12.751901095355457 5.575046582054124
lfingers 7.125020000000001
lthumb -166.6680010860855 215.128986220272
rclavicle -5.008194635137239e-15 -1.0203021429272721e-14
rhumerus -2.45462963903001 -13.358591779267648 -87.8589913174713
rradius 97.28078921971616
rwrist -30.909795734171198
rhand -62.392890261238065 21.36119573569866
rfingers 7.125020000000001
rthumb -34.426790671379564 -5.326775033804671
